<?xml version="1.0" encoding="UTF-8"?>
<svg xmlns="http://www.w3.org/2000/svg" viewBox="0 0 500 500">
  <g isolation="isolate">
    <g id="OBJECTS">
      <path d="M432.62,399.91c31.76-36.76,40.85-90.44,43.46-137.19,1.14-20.37,2.74-42.21-1.96-62.06-5.2-21.95-12.24-42.48-24-61.98-38.92-64.56-123.86-94.91-195.72-67.32-22.24,8.54-39.22,27.03-62.72,32.88-16.34,4.07-33.68,1.37-50.34,2.44-34.71,2.23-65.11,15.25-87.14,42.16-18.66,22.8-28.32,52-30.69,80.61-2.45,29.45.44,60.05,13.87,86.49,13.43,26.44,38.59,48.15,68.32,52.63,19.8,2.99,38.88-1.22,58.27-4.74,14-2.55,28.85-3.92,42.17,1.05,30.13,11.25,48.57,40.9,76.85,55.41,16.07,8.24,30.37,15.56,48.77,17.74,36.63,4.33,73.39-8.4,98.22-35.14.91-.98,1.8-1.97,2.66-2.97Z" fill="#667eea" stroke-width="0"/>
      <g>
        <path d="M249.63,161.02h-39.25c-9.43,0-17.08,7.65-17.08,17.08v15.28c0,9.43,7.65,17.08,17.08,17.08h.18c.58,2.17,1.31,4.29,2.22,6.34.42.94.99,1.97,1.98,2.25,1.44.4,2.72-.97,3.51-2.24,1.25-2,2.28-4.13,3.08-6.34h28.26c9.43,0,17.08-7.65,17.08-17.08v-15.28c0-9.43-7.65-17.08-17.08-17.08Z" fill="#3a2277" stroke-width="0"/>
        <text transform="translate(201.07 190.93)" fill="#f4c247" font-family="BebasNeue-Regular, &apos;Bebas Neue&apos;" font-size="20.1"><tspan x="0" y="0">%&amp;*$@!!</tspan></text>
      </g>
      <g>
        <path d="M86.06,156.74h-43.5c-9.43,0-17.08,7.65-17.08,17.08v27.15c0,9.43,7.65,17.08,17.08,17.08h30.03c.93,3.12,2.07,6.19,3.42,9.15.51,1.12,1.29,2.89,2.51,3.43,1.95.86,2.82-2.97,3.2-4.28.78-2.72,1.36-5.5,1.79-8.3h2.54c9.43,0,17.08-7.65,17.08-17.08v-27.15c0-9.43-7.65-17.08-17.08-17.08Z" fill="#3a2277" stroke-width="0"/>
        <g>
          <circle cx="64.3" cy="187.84" r="24.8" transform="translate(-133.77 174.11) rotate(-67.14)" fill="#f4c247" stroke-width="0"/>
          <g>
            <path d="M53.98,184.97c-.02.3-.04.61-.04.92,0,6.81,4.64,10.72,10.35,10.72s10.35-3.91,10.35-10.72c0-.31-.02-.61-.04-.92h-20.63Z" fill="#a83341" stroke-width="0"/>
            <path d="M71.44,193.96c-1.4-2.5-4.07-4.2-7.14-4.2s-5.74,1.69-7.14,4.2c1.86,1.72,4.37,2.64,7.14,2.64s5.28-.92,7.14-2.64Z" fill="#f24654" stroke-width="0"/>
          </g>
          <g>
            <g>
              <ellipse cx="49.68" cy="184.36" rx="1.59" ry="2.79" fill="#b7831a" stroke-width="0"/>
              <ellipse cx="78.92" cy="184.36" rx="1.59" ry="2.79" fill="#b7831a" stroke-width="0"/>
            </g>
            <g>
              <path d="M56.63,179.12c-.56.93-2.58.75-4.5-.4s-3.03-2.85-2.47-3.79c.56-.93,2.58-.75,4.5.41,1.92,1.16,3.03,2.85,2.47,3.79Z" fill="#b7831a" stroke-width="0"/>
              <path d="M71.96,179.12c.56.93,2.58.75,4.5-.4,1.92-1.16,3.03-2.85,2.47-3.79-.56-.93-2.58-.75-4.5.41s-3.03,2.85-2.47,3.79Z" fill="#b7831a" stroke-width="0"/>
            </g>
          </g>
        </g>
      </g>
      <g>
        <path d="M118.32,307.83c-1.6-1.3-3.28-2.5-5.01-3.61.57-2.56.87-5.22.87-7.95,0-20.25-16.42-36.67-36.67-36.67s-36.67,16.42-36.67,36.67,16.42,36.67,36.67,36.67c13.98,0,26.13-7.83,32.32-19.34,2.37-.21,4.72-.53,7.05-.99,1.3-.26,2.86-.83,3.03-2.14.14-1.07-.75-1.97-1.59-2.65Z" fill="#fff6f3" stroke-width="0"/>
        <g>
          <circle cx="77.23" cy="296.27" r="24.82" fill="#f4c247" stroke-width="0"/>
          <g>
            <ellipse cx="64.2" cy="291.86" rx="1.59" ry="2.79" fill="#b7831a" stroke-width="0"/>
            <ellipse cx="90.26" cy="291.86" rx="1.59" ry="2.79" fill="#b7831a" stroke-width="0"/>
          </g>
          <path d="M83.69,298.92c-.4,0-.73-.33-.73-.73,0-3.16-2.57-5.72-5.73-5.72s-5.73,2.57-5.73,5.72c0,.4-.33.73-.73.73s-.73-.33-.73-.73c0-3.96,3.22-7.19,7.19-7.19s7.19,3.22,7.19,7.19c0,.4-.33.73-.73.73Z" fill="#f24654" stroke-width="0"/>
          <g>
            <path d="M69.56,284.53c-.56.93-2.58.75-4.5-.41-1.92-1.16-3.03-2.85-2.47-3.79.56-.93,2.58-.75,4.5.4,1.92,1.16,3.03,2.85,2.47,3.79Z" fill="#b7831a" stroke-width="0"/>
            <path d="M84.9,284.53c.56.93,2.58.75,4.5-.41,1.92-1.16,3.03-2.85,2.47-3.79-.56-.93-2.58-.75-4.5.4-1.92,1.16-3.03,2.85-2.47,3.79Z" fill="#b7831a" stroke-width="0"/>
          </g>
        </g>
      </g>
      <g>
        <polygon points="145.64 190.84 132.05 195.03 145.25 214.33 145.64 190.84" fill="#f4c247" stroke-width="0"/>
        <polygon points="117.7 209.6 108.52 220.45 127.08 226.42 117.7 209.6" fill="#3a2277" stroke-width="0"/>
        <polygon points="175.95 194.56 162.33 190.5 164.31 209.9 175.95 194.56" fill="#fff6f3" stroke-width="0"/>
      </g>
      <g>
        <path d="M407.56,355.06c7.79,3.37,16.97,1.08,24.35-3.1,5.42-3.07,10.49-7.42,12.51-13.31s.02-13.44-5.6-16.12c11.98,1.44,23.01-9.62,24.35-21.61,1.33-12-5.11-23.79-14-31.95,11.3-9.84,18.66-32.49,6.36-44.23-9.28-8.85-24.02-10.31-32.74-19.71-7.86-8.48-8.31-20.17-9.48-31.02-3.02-27.82-11.24-67.07-42.66-75.59-13.66-3.71-28.89-3.93-42.56-.34-4.41,1.16-8.75,2.68-12.7,4.95-1.52.87-3,1.86-4.68,2.32-1.28.35-2.63.39-3.96.49-15.24,1.21-26.74,13.92-31.71,27.59-6.04,16.64-3.64,37.38,1.31,53.92,1.55,5.18,3.43,10.28,4.32,15.61s.74,11.01-1.64,15.86c-2.14,4.35-5.86,7.67-8.98,11.38-6.96,8.27-11.05,18.91-11.43,29.71-.23,6.61,1.08,13.64,5.54,18.52,3.48,3.81,8.45,5.87,13.32,7.56,2.78.96,6.12,1.76,8.45-.03" fill="#3a2277" stroke-width="0"/>
        <path d="M398.63,357.61c-11.74-2.12-23.47-4.08-34.6-8.13l-51.24-1.09c-3.52,12.28-7.11,24.56-9.7,37,22.83,9.41,68.3,25.88,95.08,20.38,17.33-3.56,24.84-24.21,27.94-45.09-9.19-.2-18.39-1.43-27.48-3.07Z" fill="#ff929f" stroke-width="0"/>
        <path d="M378.41,261.08c-12.49-3.06-23.15-12.61-27.78-24.61s-3.23-26.11,3.48-37.08c6.71-10.97,18.5-18.63,31.22-20.54,3.78-.57,7.66-.66,11.29-1.87.75-.25,1.54-.55,2.32-.42,2.03.34,2.46,3.01,2.52,5.06.35,12.19,4.41,24.22,11.39,34.21,6.15,8.79,18.09,9.68,24.29,18.83,6.32,9.34,1.62,23.52-3.84,32.23,6.44,5.91,10.5,14.34,11.11,23.05.32,4.53-.3,9.23-2.52,13.19-2.22,3.96-6.22,7.07-10.73,7.51,3.45,5.07,1.32,12.39-3.11,16.62-4.44,4.24-10.55,6.12-16.45,7.8" fill="#1f104f" stroke-width="0"/>
        <path d="M288.57,141.62c-9.78,11.91-10.57,29.08-6.79,44.01,2.86,11.29,8.07,22.43,6.95,34.02-.62,6.44-3.18,12.5-5.72,18.45-2.55,5.94-5.15,11.98-5.87,18.41s.7,13.41,5.26,18c5.16,5.2,13.28,6.32,20.52,5.18,7.24-1.14,14.02-4.19,21.05-6.24,9.21-2.68,18.92-3.64,28.48-2.82,3.62.31,7.73.73,10.46-1.67,1.78-1.56,2.51-3.97,3.05-6.28,3.14-13.59,1.98-28.14-3.28-41.05" fill="#1f104f" stroke-width="0"/>
        <path d="M269.96,283.18l-22.6,22.95-27.48-22.95-26.3,24.2s25.28,51.17,57.91,54.88c32.62,3.72,61.75-74.71,61.75-74.71l-43.27-4.37Z" fill="#ff8892" stroke-width="0"/>
        <path d="M348.95,252.99c8.9,1.58,18.35-1.27,25.31-7.03,1.11-.92,2.14-1.92,3.14-2.95-2.03-.42-3.64-2.08-3.93-4.21l-4.13-30.33-36.08,13.46,2.08,14.66c.38,2.69-1.4,4.97-3.77,5.55,4.09,5.64,10.49,9.63,17.39,10.85Z" fill="#ff8892" stroke-width="0"/>
        <g>
          <path d="M155.3,89.87c-20.98,0-38,17.01-38,38,0,14.23,7.83,26.63,19.42,33.14-.73,3.01-1.25,6.08-1.55,9.17-.08.86-.09,1.88.59,2.41.63.5,1.56.33,2.3,0,1.65-.73,2.93-2.08,4.13-3.43,1.3-1.46,2.57-2.95,3.8-4.47,2.98.75,6.1,1.15,9.31,1.15,20.98,0,38-17.01,38-38s-17.01-38-38-38Z" fill="#fff6f3" stroke-width="0"/>
          <g>
            <path d="M134.09,145.06c0,1.36.79,2.53,1.93,3.11h34.4v-27.35h-15v-9.06c0-2.19-1.77-3.96-3.96-3.96s-3.96,1.77-3.96,3.96v9.06h-.56c-.33-.1-.67-.17-1.03-.17h-8.34c-1.93,0-3.49,1.56-3.49,3.49s1.56,3.49,3.49,3.49c-1.93,0-3.49,1.56-3.49,3.49h0c0,1.93,1.56,3.49,3.49,3.49-1.93,0-3.49,1.56-3.49,3.49s1.56,3.49,3.49,3.49c-1.93,0-3.49,1.56-3.49,3.49Z" fill="#ff929f" stroke-width="0"/>
            <path d="M155.41,116.63s0,0,.01,0v-.55c-.98-.63-2.2-1.78-2.33-3.47-.11-1.47.48-2.77,1.05-3.75-.13-.12-.26-.23-.41-.34-.69.98-1.42,2.4-1.3,4.14.08,1.03.55,1.96,1.14,2.6.58.66,1.26,1.08,1.84,1.36Z" fill="#fce9e3" stroke-width="0"/>
            <rect x="165.26" y="114.53" width="12.93" height="37.36" rx="3.17" ry="3.17" transform="translate(343.45 266.42) rotate(180)" fill="#0d2855" stroke-width="0"/>
          </g>
        </g>
        <g>
          <path d="M223.77,294.1c-2.96-5.45-7.16-9.22-11.46-11.83l-25.05-55.59c-2.25-4.99-8.11-7.21-13.1-4.96l-35.16,15.84c-2.39-1.81-6.47-2.62-13.46-.21-17.06,5.9-8.01,19.83-8.01,19.83h0c.09.26.19.52.3.77l33.76,74.93c2.25,4.99,8.11,7.21,13.1,4.96l50.6-22.8.02.03,3.94-1.78c4.38-2.76,10.22-8.71,4.51-19.2Z" fill="#7c98d8" stroke-width="0"/>
          <rect x="134.1" y="221.28" width="76.14" height="101.99" rx="9.9" ry="9.9" transform="translate(-96.66 94.77) rotate(-24.26)" fill="#94abfb" stroke-width="0"/>
          <circle cx="191.07" cy="314.21" r="2.93" transform="translate(-125.18 501.89) rotate(-89.38)" fill="#6280bc" stroke-width="0"/>
          <rect x="138.3" y="226.35" width="65.76" height="88.15" rx="4.51" ry="4.51" transform="translate(-95.98 94.2) rotate(-24.26)" fill="#dce4f9" stroke-width="0"/>
          <circle cx="171.05" cy="269.77" r="28.8" fill="#fff6f3" stroke-width="0"/>
          <g>
            <path d="M183.32,253.24c-.46-1.01-1.43-1.62-2.47-1.66l-25.54,11.51,9.15,20.31,11.14-5.02,3.03,6.73c.73,1.62,2.64,2.35,4.26,1.61,1.62-.73,2.35-2.64,1.61-4.26l-3.03-6.73.41-.19c.28-.03.56-.1.82-.22l6.19-2.79c1.43-.64,2.07-2.33,1.42-3.76s-2.33-2.07-3.76-1.42c1.43-.64,2.07-2.33,1.42-3.76h0c-.64-1.43-2.33-2.07-3.76-1.42,1.43-.64,2.07-2.33,1.42-3.76s-2.33-2.07-3.76-1.42c1.43-.64,2.07-2.33,1.42-3.76Z" fill="#ff929f" stroke-width="0"/>
            <path d="M177,281.48s0,0,0,0l.18.41c.94.14,2.23.59,2.89,1.8.57,1.06.57,2.22.47,3.13.14.05.27.09.42.11.18-.96.25-2.25-.42-3.51-.4-.74-1.06-1.27-1.72-1.55-.65-.3-1.3-.38-1.82-.39Z" fill="#fce9e3" stroke-width="0"/>
            <rect x="154.07" y="259.41" width="10.54" height="30.43" rx="2.58" ry="2.58" transform="translate(-98.76 89.7) rotate(-24.26)" fill="#0d2855" stroke-width="0"/>
          </g>
        </g>
        <path d="M302.89,283.73c.32-.08-.44-3.99-.84-8.87-.43-4.87-.34-8.86-.66-8.88-.29-.03-.9,4-.46,8.98.41,4.98,1.69,8.85,1.97,8.77Z" fill="#58433b" stroke-width="0"/>
        <path d="M409.58,249.8c-12.65-6.03-24.84-6.78-31.12-6.69-.37,0-.72-.04-1.07-.11-.99,1.03-2.03,2.03-3.14,2.95-6.96,5.77-16.41,8.61-25.31,7.03-6.9-1.22-13.3-5.21-17.39-10.85-.83.2-1.72.2-2.63-.06-9.73-2.86-26.99-4.81-40.83,10.39-20.48,22.48-30.38,34.95-30.38,34.95,0,0,19.57,31.38,41.48,36.69,0,0-24.38,29.87-31.54,65.11,0,0,47.61,44.02,130.52,39.24l10.26-92.96h22.26s4.95-73.29-21.12-85.7Z" fill="#e1fdff" stroke-width="0"/>
        <g>
          <path d="M383.52,246.38c-.19-.16-2.17,3.16-6.85,6.98-1.16.96-2.52,1.9-4.02,2.84-1.53.88-3.19,1.8-5.04,2.52-3.67,1.5-8,2.46-12.57,2.38-4.56-.14-8.83-1.36-12.37-3.13-3.55-1.78-6.39-4.02-8.44-6.22-2.06-2.19-3.42-4.24-4.22-5.72-.81-1.48-1.2-2.34-1.29-2.31-.05.02.19.94.9,2.51.7,1.57,1.98,3.74,4.02,6.06,2.03,2.33,4.91,4.72,8.56,6.61,3.63,1.88,8.06,3.19,12.81,3.34,4.75.08,9.23-.94,12.99-2.55,1.9-.77,3.59-1.75,5.13-2.69,1.52-1,2.88-2,4.03-3.02,2.32-2.03,3.95-3.93,4.94-5.33,1-1.4,1.45-2.23,1.4-2.27Z" fill="#3a2277" stroke-width="0"/>
          <path d="M302.89,317.61c-1.04-.57-2.17-1.22-3.38-1.93-.78-.48-1.58-.96-2.4-1.45-.83-.51-1.66-1.1-2.53-1.68-1.77-1.13-3.55-2.5-5.45-3.9-3.72-2.91-7.63-6.31-11.43-10.22-3.76-3.94-7.02-7.98-9.78-11.8-1.33-1.95-2.63-3.78-3.69-5.59-.18-.29-.35-.57-.53-.85-.33.39-.64.76-.94,1.12.09.15.18.3.26.45,1.03,1.87,2.31,3.75,3.62,5.76,2.74,3.93,6.02,8.08,9.84,12.09,3.86,3.97,7.88,7.41,11.71,10.29,1.95,1.39,3.79,2.74,5.62,3.83.91.56,1.76,1.13,2.62,1.62.85.47,1.67.93,2.49,1.38,1.19.69,2.34,1.23,3.39,1.73.18-.29.38-.57.59-.84Z" fill="#3a2277" stroke-width="0"/>
          <path d="M300.06,323.53c1.2-1.82,2.38-3.89,3.18-6.27.83-2.38,1.13-5.05,1.11-7.73-.01-2.69-.33-5.44-.69-8.2-.79-5.51-1.07-10.74-.86-15.53.22-4.78.84-9.06,1.58-12.61.73-3.55,1.55-6.38,2.14-8.33.59-1.95.93-3.03.81-3.08-.1-.04-.65.96-1.43,2.86-.79,1.9-1.8,4.71-2.69,8.28-.9,3.57-1.66,7.91-1.97,12.79-.31,4.86-.06,10.3.73,15.82.35,2.76.68,5.44.71,8,.04,2.58-.21,5.02-.94,7.22-.86,2.68-2.19,4.99-3.57,7.06.33.09.66.2,1,.28,0,0-1.74,2.35-4.39,6.51.52-.71,1.09-1.46,1.7-2.24,1.11-1.45,2.35-3.04,3.56-4.85Z" fill="#3a2277" stroke-width="0"/>
          <path d="M370.51,333.22c.12,0,.16-1.43.14-4-.06-3.18-.12-6.79-.2-10.88-.15-9.17-.4-21.87,1.08-35.75.74-6.9,2.2-13.41,4.39-18.97,2.18-5.56,5.27-10.13,8.83-12.84,3.53-2.78,7.25-3.54,9.74-3.76,2.52-.19,3.95,0,3.96-.16,0-.06-.34-.15-1.01-.27-.67-.13-1.68-.23-2.98-.23-1.31,0-2.91.18-4.72.67-1.8.5-3.79,1.4-5.7,2.79-3.88,2.76-7.24,7.51-9.56,13.21-2.35,5.71-3.87,12.35-4.63,19.38-1.5,14.03-1.05,26.8-.59,35.97.24,4.59.51,8.3.74,10.87.23,2.56.41,3.98.52,3.97Z" fill="#3a2277" stroke-width="0"/>
        </g>
        <g mix-blend-mode="multiply" opacity=".26">
          <path d="M371.81,226.67l-2.48-18.21-36.08,13.46,2.08,14.66c.21,1.51-.27,2.88-1.14,3.9,13.48.46,27.09-5.04,37.62-13.83Z" fill="#ff929f" stroke-width="0"/>
        </g>
        <path d="M400.1,162.63c-3.13-4.15-9.96-5.66-15.36-4.67-.03-1.01-.06-2-.09-2.97-.41-15.86-2.8-31.65-18.38-39.47-15.61-7.83-36.18-7.33-52.4-1.65-8.96,3.14-17.62,8.48-22.35,16.98-2.02,3.62-2.98,7.74-3.64,11.83-3.37,20.79.48,42.06,5.68,62.46,2.8,10.99,10.34,19.11,21.16,22.53,15.32,4.83,34.17,2.27,48.59-4.27,11.7-5.31,17.27-15.28,19.83-26.76,16.3-.69,27.81-19.62,16.97-34.01Z" fill="#ff8892" stroke-width="0"/>
        <g>
          <g>
            <path d="M395.66,163.04c0-.1-.54-.22-1.53-.18-.99.03-2.43.33-4.06,1.09-1.63.75-3.38,2.05-4.95,3.82-1.56,1.78-2.93,4.04-3.79,6.64-.84,2.58-1.19,5.15-1.28,7.46-.1,2.31.03,4.38.2,6.1.36,3.44.81,5.52,1.03,5.51.25-.02.22-2.16.17-5.57-.01-3.39-.06-8.15,1.49-12.97.79-2.37,2-4.48,3.37-6.16,1.38-1.67,2.9-2.95,4.32-3.77,2.86-1.67,5.07-1.67,5.03-1.97Z" fill="#bf4f61" stroke-width="0"/>
            <path d="M388.02,188.03c.2.09.85-.76,1.44-2.37.58-1.59,1.08-4.05.48-6.72-.62-2.69-2.31-4.71-3.82-5.64-1.52-.96-2.68-.95-2.72-.76-.08.25.87.65,1.99,1.71,1.12,1.03,2.38,2.82,2.9,5.07.52,2.27.28,4.47.02,6.03-.26,1.58-.51,2.58-.28,2.68Z" fill="#bf4f61" stroke-width="0"/>
            <path d="M319.7,193.72c.05-.12-.49-.42-1.32-1.1-.81-.68-2.01-1.75-2.84-3.39-.4-.82-.66-1.75-.5-2.73.15-.99.68-2.02,1.37-3.07.69-1.06,1.55-2.13,2.32-3.42.8-1.33,1.27-2.91,1.4-4.52.25-3.27-.82-6.25-2.19-8.59-1.42-2.34-3.14-4.07-4.64-5.4-3.04-2.62-5.15-3.87-5.28-3.72-.17.2,1.7,1.82,4.45,4.59,1.35,1.4,2.89,3.14,4.11,5.32,1.18,2.17,2.08,4.88,1.86,7.67-.12,1.39-.49,2.7-1.15,3.82-.67,1.16-1.5,2.26-2.2,3.42-.7,1.15-1.31,2.39-1.45,3.73-.15,1.35.3,2.58.84,3.48,1.12,1.83,2.54,2.8,3.52,3.36,1.01.55,1.65.64,1.69.55Z" fill="#bf4f61" stroke-width="0"/>
            <path d="M326.75,190.19c-.34-.32-1.15,0-1.81.7-.66.7-.91,1.54-.57,1.85.34.32,1.15,0,1.81-.7.66-.7.91-1.54.57-1.85Z" fill="#bf4f61" stroke-width="0"/>
            <path d="M332.15,199.12c.08-.2-.47-.67-1.55-.96-1.07-.3-2.69-.33-4.32.25-1.63.58-2.86,1.62-3.51,2.53-.66.91-.79,1.61-.6,1.72.42.25,1.93-1.73,4.68-2.65,2.71-1.01,5.14-.43,5.3-.89Z" fill="#bf4f61" stroke-width="0"/>
            <path d="M303.55,186.25c.46-.09.27-2.96-.42-6.4-.69-3.44-1.63-6.15-2.09-6.06-.46.09-.27,2.96.42,6.4.69,3.44,1.63,6.15,2.09,6.06Z" fill="#bf4f61" stroke-width="0"/>
            <path d="M339.62,179.25c.47-.04.58-2.87.25-6.31-.33-3.44-.97-6.19-1.44-6.14-.47.04-.58,2.87-.25,6.31.33,3.44.97,6.19,1.44,6.15Z" fill="#bf4f61" stroke-width="0"/>
          </g>
          <g>
            <path d="M303.21,157.6c1.57,1.9-.09,5.87-3.71,8.87-3.62,3-7.84,3.9-9.41,2.01s.09-5.87,3.71-8.87c3.62-3,7.84-3.9,9.41-2.01Z" fill="#bf4f61" stroke-width="0"/>
            <path d="M344.44,160.09c-1.01,2.24-5.31,2.49-9.6.56-4.29-1.94-6.95-5.33-5.93-7.57s5.31-2.49,9.6-.56c4.29,1.94,6.95,5.33,5.93,7.57Z" fill="#bf4f61" stroke-width="0"/>
          </g>
        </g>
        <path d="M373.91,333.62l-.93,21.06-53.91-3c-4.18,11.74-7.14,23.92-9.88,36.17,24.12,9.52,64.4,22.96,88.98,17.92,24.81-5.09,29.5-45.19,29.92-70.86-18.02.76-36.06.15-54.18-1.29Z" fill="#ff929f" stroke-width="0"/>
        <g mix-blend-mode="multiply" opacity=".26">
          <path d="M399.3,171.04c.13,5.43-1.94,10.58-5.39,14.7-.7.84-10.31,9.42-11.05,7.72-3.69-8.39-2.58-22.14,5.59-27.96,2.96-2.11,7.71-2.03,9.71,1,.87,1.32,1.11,2.97,1.15,4.55Z" fill="#ff929f" stroke-width="0"/>
        </g>
        <path d="M296.91,115.66c-5.44,1.19-8.74,6.69-10.62,11.93-3.31,9.2-7.87,16.83-9.55,26.84-.1.59-.16,1.29.28,1.69.28.25.69.3,1.07.33,2.24.17,21.71-1.15,21.71-1.74,1.15-6.41,2.51-12.78,4.07-19.09.48,4.74,1.28,9.44,2.39,14.06.21.85.46,1.76,1.12,2.32.76.64,1.84.67,2.84.67,6.62,0,13.23,0,19.85,0,1.22-6.52,2.44-13.04,3.67-19.55.29,6.31,1.02,12.6,2.19,18.8,7.9.46,15.68.64,23.56.77.11-5.89.21-11.78.32-17.67,1.33,4.24,2.93,8.39,4.78,12.43,1.38,3.02,2.99,6.08,5.64,8.07,3.73,2.8,8.86,2.95,13.43,1.99,1.76-.37,3.59-.94,4.8-2.26,1.51-1.65,1.74-4.07,1.85-6.31.18-3.82.24-7.65.16-11.48-.1-4.95-.44-9.97-2.12-14.62-2.3-6.39-9.08-13.32-14.69-17.05-7.02-4.68-15.74-6.25-24.16-5.96-8.43.29-16.69,2.32-24.87,4.34" fill="#3a2277" stroke-width="0"/>
        <path d="M232.06,293.8c-4.34-5.55-8.68-11.09-13.03-16.64-2.08-2.66-10.51-9.89-9.15-1.1.69,4.44,4.52,7.79,5.68,12.13,1.53,5.77.22,11.18,2.82,16.89,1.41,3.1,3,6.17,5.31,8.67s5.43,4.4,8.83,4.62c.58.04,1.2.02,1.7-.26.54-.3.89-.85,1.21-1.38,1.62-2.67,3.24-5.34,4.86-8.01.73-1.21,1.39-2.98.28-3.86" fill="#ff929f" stroke-width="0"/>
        <g mix-blend-mode="multiply" opacity=".26">
          <path d="M427.63,346.06c.25-3.9.39-7.66.45-11.15-18.02.76-36.06.15-54.18-1.29l-.93,13.74c18.24,2.37,37.06,2.95,54.66-1.31Z" fill="#ff929f" stroke-width="0"/>
        </g>
        <path d="M371.39,333.25c20.17,3.11,40.73,3.67,61.03,1.65" fill="#3a2277" stroke-width="0"/>
        <path d="M341.6,353.75c-11.99-1.34-23.79-3.81-35.77-5.15-3.94-.44-7.94-.55-11.89-.08-3.39.4-7.87.97-10.58,3.19-.5.41-1,1.02-.81,1.64.2.66,1.03.86,1.72.92,4.29.39,8.65-.26,12.95-.29,4.27-.02,8.61.31,12.6,1.94-5.92.88-11.96.53-17.9,1.21-4.09.47-8.04,1.31-11.94,2.71-1.08.39-2.16.83-3.02,1.58-.33.29-.65.68-.61,1.13.06.71.93,1.01,1.64,1.1,3.5.45,7.16-.14,10.62-.64,1.69-.25,3.39-.46,5.09-.66,1.69-.19,3.6-.63,5.3-.44,3.16.34,6.37.42,9.54.79-8.6.97-17.11,2.74-25.38,5.29-1.12.34-7.94,3.56-4.82,4.77,3.4,1.32,6.62.04,9.98-.81,6.05-1.52,12.38-1.9,18.56-1.12-4.52.54-8.99,1.49-13.33,2.84-4,1.25-8.07,2.48-11.33,5.23-.56.47-1.14,1.14-.94,1.84.12.4.48.69.85.88,1.61.83,3.55.3,5.29-.17,3.31-.9,6.84-1.58,10.26-.91,2.84.56,4.88,3.14,7.28,4.74,2.43,1.62,5.01,2.99,7.71,4.09,1.85.76,3.83,1.08,5.68,1.78,2.02.76,4,1.63,6.02,2.38,4.03,1.49,8.12,2.82,12.26,3.97" fill="#ff929f" stroke-width="0"/>
      </g>
    </g>
  </g>
</svg>